PathFileType	4	(x/y/z)	S04_P20_T07.trc
DataRate	CameraRate	NumFrames	NumMarkers	Units	OrigDataRate	OrigDataStartFrame	OrigNumFrames
240	240	4	51	mm	240	47	369
Frame#	Time	Sternum			R.Acromium			L.Acromium			Top.Head			R.ASIS			L.ASIS			R.PSIS			L.PSIS			R.Great.Tro			L.Great.Tro			R.Iliac.Crest			L.Iliac.Crest			V.Sacral			R.Thigh.Upper.Post			R.Thigh.Lower.Ant			R.Thigh.Lower.Post			R.Thigh.Upper.Ant			R.Knee.Lat			R.Knee.Med			R.Shank.Upper.Post			R.Shank.Lower.Ant			R.Shank.Lower.Post			R.Shank.Upper.Ant			R.Ankle.Lat			R.Ankle.Med			R.Heel.Upper			R.Heel.Med			R.Heel.Lat			R.Toe.Lat			R.Toe.Med			R.Toe.Tip			L.Thigh.Upper.Post			L.Thigh.Lower.Ant			L.Thigh.Lower.Post			L.Thigh.Upper.Ant			L.Knee.Lat			L.Knee.Med			L.Shank.Upper.Post			L.Shank.Lower.Ant			L.Shank.Lower.Post			L.Shank.Upper.Ant			L.Ankle.Lat			L.Ankle.Med			L.Heel.Upper			L.Heel.Med			L.Heel.Lat			L.Toe.Lat			L.Toe.Med			L.Toe.Tip			Cervical.Spine			Back			
		X1	Y1	Z1	X2	Y2	Z2	X3	Y3	Z3	X4	Y4	Z4	X5	Y5	Z5	X6	Y6	Z6	X7	Y7	Z7	X8	Y8	Z8	X9	Y9	Z9	X10	Y10	Z10	X11	Y11	Z11	X12	Y12	Z12	X13	Y13	Z13	X14	Y14	Z14	X15	Y15	Z15	X16	Y16	Z16	X17	Y17	Z17	X18	Y18	Z18	X19	Y19	Z19	X20	Y20	Z20	X21	Y21	Z21	X22	Y22	Z22	X23	Y23	Z23	X24	Y24	Z24	X25	Y25	Z25	X26	Y26	Z26	X27	Y27	Z27	X28	Y28	Z28	X29	Y29	Z29	X30	Y30	Z30	X31	Y31	Z31	X32	Y32	Z32	X33	Y33	Z33	X34	Y34	Z34	X35	Y35	Z35	X36	Y36	Z36	X37	Y37	Z37	X38	Y38	Z38	X39	Y39	Z39	X40	Y40	Z40	X41	Y41	Z41	X42	Y42	Z42	X43	Y43	Z43	X44	Y44	Z44	X45	Y45	Z45	X46	Y46	Z46	X47	Y47	Z47	X48	Y48	Z48	X49	Y49	Z49	X50	Y50	Z50	X51	Y51	Z51	

47	0.19167	-1078.1	1272.2	245.99	-1184	1502.1	429.68	-1228.2	1485	81.869	-1188.8	1827.9	238.31	-1117.5	986.14	394.39	-1115.2	1013.5	147.41	-1336.7	1022.5	293.54	-1325.9	1029.5	211.73	-1210.2	903.11	453.9	-1221.5	922.71	77.004	-1206.1	1081.3	436.54	-1219.5	1089.3	100.04	-1352.3	984	250.93	-1194.8	644.48	454.21	-1111.5	565.95	433.59	-1187.3	554.14	443.64	-1112.4	676.52	448.16	-1172.1	485.54	439.04	-1177.2	480.88	304.67	-1373.8	373.84	429.35	NaN	NaN	NaN	-1427.3	326.39	415.99	-1337.7	320.83	418.08	-1503	241.97	397.75	-1467.5	225.01	314.89	-1566.9	255.95	334.69	-1573.3	225.27	305.58	-1591.8	234.65	367.18	-1484.5	119.23	442.86	-1434.2	83.61	334.42	-1375.8	64.232	389.24	-1181.8	682.37	92.129	-1080.4	609.08	102.85	-1152.4	599.47	109.46	-1114.2	691.02	83.501	-1090.7	517.01	120.88	-1092.9	508.64	243.63	-1160	332.47	118.05	-1089.8	249.22	130.28	-1153	254.29	129.85	-1098.9	324.61	119.52	-1106.4	97.673	149.56	-1105	110.27	242.99	-1181.9	68.613	196.65	-1175.7	45.349	231.27	-1179.8	39.67	170.28	-993.94	42.259	135	-964.89	53.584	250.62	-906.71	65.705	202.11	-1254.2	1548.5	264.4	-1344.4	1292.8	255.49
48	0.19583	-1073.2	1272.8	245.95	-1179.5	1502.9	429.33	-1222.8	1485.5	81.407	-1184.1	1828.5	237.64	-1112.6	986.86	393.91	-1110.7	1014.1	146.98	-1332	1023	293.12	-1321.1	1030	211.32	-1204.8	903.75	453.46	-1216.8	923.15	76.679	-1201.5	1081.9	436.09	-1214.6	1089.9	99.645	-1347.5	984.49	250.48	-1186.6	645.18	453.68	-1102.4	567.61	433.25	-1178.1	554.93	443.05	-1104.6	678.17	447.83	-1162.2	486.85	438.61	-1166.8	481.93	304.16	-1363.9	375.54	428.73	NaN	NaN	NaN	-1417.7	328.15	415.53	-1327.8	322.36	417.81	-1493.3	243.87	397.31	-1457.7	226.35	314.59	-1557	257.26	333.94	-1563.4	226.33	305.06	-1582.1	236.27	366.6	-1474.5	121.47	443.54	-1424.2	84.917	335.46	-1366	65.934	390.73	-1178.2	682.79	92.047	-1077.2	608.97	102.74	-1149.2	599.73	109.4	-1110.6	691.07	83.36	-1088	516.95	120.87	-1090.2	508.65	243.66	-1158.4	332.84	118.14	-1088.7	249.1	130.33	-1151.7	254.61	129.95	-1097.4	324.57	119.56	-1106.2	97.778	149.71	-1104.8	110.28	243.13	-1182	68.724	196.73	-1175.7	45.373	231.32	-1179.7	39.784	170.32	-993.92	42.276	134.96	-964.83	53.309	250.66	-906.66	65.38	202.13	-1249.3	1549.1	263.83	-1339.5	1293.5	254.8
49	0.2	-1068.4	1273.5	245.92	-1175	1503.6	428.98	-1217.4	1486.1	80.962	-1179.3	1829.2	236.98	-1107.8	987.63	393.46	-1106.2	1014.6	146.54	-1327.2	1023.5	292.67	-1316.3	1030.5	210.88	-1199.6	904.48	453.03	-1212.1	923.58	76.366	-1196.9	1082.5	435.65	-1209.7	1090.5	99.241	-1342.8	985	250.02	-1178.5	645.97	453.13	-1093.4	569.38	432.9	-1168.9	555.84	442.46	-1096.8	679.91	447.5	-1152.3	488.26	438.16	-1156.6	483.11	303.65	-1353.9	377.06	428.12	NaN	NaN	NaN	-1407.8	329.66	415.07	-1317.6	323.8	417.53	-1483.2	245.38	396.89	-1447.7	227.46	314.27	-1547	258.13	333.26	-1553.3	226.96	304.6	-1572.1	237.38	366.09	-1464	123.36	444.13	-1413.8	86.065	336.36	-1355.7	67.505	392.05	-1174.6	683.22	91.991	-1074.1	608.84	102.65	-1146.2	600	109.37	-1107.1	691.12	83.243	-1085.4	516.88	120.88	-1087.7	508.65	243.72	-1156.9	333.18	118.29	-1087.7	249	130.4	-1150.6	254.92	130.09	-1096	324.54	119.62	-1106.1	97.887	149.87	-1104.7	110.3	243.28	-1182	68.835	196.81	-1175.7	45.394	231.37	-1179.7	39.898	170.36	-993.89	42.304	134.93	-964.78	53.057	250.69	-906.62	65.091	202.14	-1244.5	1549.9	263.27	-1334.7	1294.2	254.12
50	0.20417	-1063.5	1274.2	245.9	-1170.5	1504.4	428.64	-1212	1486.7	80.531	-1174.5	1829.9	236.34	-1102.9	988.45	393.04	-1101.5	1015.1	146.11	-1322.5	1024	292.22	-1311.5	1031	210.43	-1194.4	905.3	452.64	-1207.5	924	76.065	-1192.3	1083.2	435.21	-1204.8	1091.1	98.833	-1338	985.55	249.56	-1170.5	646.87	452.58	-1084.5	571.25	432.53	-1159.8	556.85	441.86	-1089.1	681.72	447.16	-1142.6	489.78	437.7	-1146.4	484.42	303.13	-1343.9	378.41	427.53	NaN	NaN	NaN	-1397.8	330.89	414.63	-1307.3	325.14	417.24	-1473	246.51	396.52	-1437.4	228.31	313.95	-1536.7	258.56	332.67	-1543	227.15	304.19	-1561.8	237.97	365.66	-1452.9	124.87	444.64	-1402.9	87.045	337.09	-1345	68.925	393.18	-1171.1	683.65	91.955	-1071.1	608.71	102.59	-1143.2	600.27	109.35	-1103.7	691.15	83.147	-1082.9	516.8	120.89	-1085.3	508.64	243.81	-1155.5	333.5	118.5	-1086.8	248.9	130.47	-1149.5	255.23	130.26	-1094.7	324.51	119.69	-1106	97.999	150.03	-1104.5	110.31	243.44	-1182.1	68.948	196.91	-1175.7	45.414	231.42	-1179.6	40.015	170.41	-993.87	42.34	134.9	-964.73	52.824	250.73	-906.59	64.832	202.15	-1239.6	1550.6	262.73	-1329.8	1295	253.43
